<?xml version="1.0" encoding="UTF-8"?>
<svg width="21px" height="17px" viewBox="0 0 21 17" version="1.1" xmlns="http://www.w3.org/2000/svg" xmlns:xlink="http://www.w3.org/1999/xlink">
    <title>undo-2</title>
    <g id="Page-1" stroke="none" stroke-width="1" fill="none" fill-rule="evenodd">
        <g id="Tastiera" transform="translate(-175, -802)" fill="#000000" fill-rule="nonzero">
            <g id="undo-2" transform="translate(175, 802)">
                <path d="M20.9945312,15.2217105 C20.9945312,14.2822368 21.1914062,10.5746711 18.33125,7.63322368 C16.40625,5.65361842 13.9398437,4.64703947 10.4945312,4.49046053 L10.4945312,0 L0,7.15789474 L10.5,14.3157895 L10.5,9.85328947 C12.6875,9.91480263 13.9125,10.3621711 15.2414062,10.9717105 C16.93125,11.7434211 18.265625,13.4322368 19.3867188,15.2552632 L20.4367188,17 L21,17 C21,16.4351974 20.9945312,15.7194079 20.9945312,15.2217105 Z M19.9122524,13.9036426 C18.8345162,12.0329425 17.1688695,10.3125353 15.0015399,9.42908785 C13.1118142,8.6587974 10.7733925,8.60544872 8.97691937,8.60544872 L8.97691937,11.4138151 L2.7,7.22293502 L8.97691937,3.02772105 L8.97691937,5.83175353 C12.6028605,5.83175353 15.6211445,6.92562924 17.3202028,8.60544872 C19.6130025,10.8722865 19.9122524,13.9036426 19.9122524,13.9036426 Z" id="Shape"></path>
            </g>
        </g>
    </g>
</svg>