<?xml version="1.0" encoding="UTF-8"?>
<svg width="18px" height="24px" viewBox="0 0 18 24" version="1.1" xmlns="http://www.w3.org/2000/svg" xmlns:xlink="http://www.w3.org/1999/xlink">
    <title>flash</title>
    <g id="Page-1" stroke="none" stroke-width="1" fill="none" fill-rule="evenodd">
        <g id="ShareQRCode-Copy" transform="translate(-22, -64)" fill="#EE6C4D" fill-rule="nonzero">
            <g id="flash" transform="translate(22, 64)">
                <path d="M5.91568291,24 C5.83431238,24 5.75224933,23.9773634 5.67909005,23.9306313 C5.49344652,23.8121159 5.4203367,23.5736766 5.5067527,23.3687898 L9.1501245,14.7293894 L0.445208759,14.7293894 C0.269458301,14.7293894 0.110130345,14.6242045 0.0385539554,14.4609692 C-0.032972969,14.2976835 -0.00339267798,14.1068818 0.11413704,13.9739292 L12.3360406,0.15003347 C12.4823097,-0.0154152351 12.7252836,-0.0482635186 12.9089485,0.072666456 C13.0926629,0.193546127 13.1627553,0.43228725 13.0742617,0.635815818 L9.21804045,9.50344384 L17.5548349,9.50344384 C17.7292993,9.50344384 17.8876874,9.60711967 17.9600058,9.76859438 C18.0322747,9.9301194 18.0051182,10.1196636 17.8905564,10.2535216 L6.2516517,23.844612 C6.16439479,23.9464769 6.0408303,24 5.91568291,24 Z" id="Shape"></path>
            </g>
        </g>
    </g>
</svg>